<?xml version="1.0" encoding="UTF-8"?>
<!DOCTYPE svg PUBLIC "-//W3C//DTD SVG 1.1//EN" "http://www.w3.org/Graphics/SVG/1.1/DTD/svg11.dtd">
<svg xmlns="http://www.w3.org/2000/svg" version="1.1" width="1161px" height="1161px" style="shape-rendering:geometricPrecision; text-rendering:geometricPrecision; image-rendering:optimizeQuality; fill-rule:evenodd; clip-rule:evenodd" xmlns:xlink="http://www.w3.org/1999/xlink">
<g><path style="opacity:0.994" fill="#fefffe" d="M 544.5,-0.5 C 567.833,-0.5 591.167,-0.5 614.5,-0.5C 786.189,13.0855 926.355,86.0855 1035,218.5C 1113.09,318.912 1154.92,432.912 1160.5,560.5C 1160.5,573.167 1160.5,585.833 1160.5,598.5C 1151.97,765.035 1086.31,904.201 963.5,1016C 859.057,1105.78 737.724,1153.94 599.5,1160.5C 586.167,1160.5 572.833,1160.5 559.5,1160.5C 371.81,1149.59 221.644,1069.59 109,920.5C 43.6645,829.005 7.1645,727.005 -0.5,614.5C -0.5,591.167 -0.5,567.833 -0.5,544.5C 11.8891,382.893 78.2225,248.393 198.5,141C 298.014,56.1052 413.347,8.93858 544.5,-0.5 Z M 556.5,171.5 C 703.338,167.877 821.172,223.877 910,339.5C 980,439.492 1002.67,549.492 978,669.5C 949.857,784.384 885.357,872.217 784.5,933C 674.773,993.672 560.44,1004.01 441.5,964C 324.549,919.382 243.049,838.882 197,722.5C 154.123,599.401 165.123,481.401 230,368.5C 295.823,264.123 389.656,200.29 511.5,177C 526.602,174.76 541.602,172.926 556.5,171.5 Z"/></g>
<g><path style="opacity:0.995" fill="#fefefe" d="M 713.5,301.5 C 771.032,297.85 815.532,319.85 847,367.5C 873.183,415.009 872.85,462.342 846,509.5C 812.001,559.573 764.835,580.406 704.5,572C 667.666,564.351 638.166,545.517 616,515.5C 603.228,521.803 590.394,527.97 577.5,534C 593.719,582.282 590.219,629.115 567,674.5C 563.582,680.337 559.916,686.004 556,691.5C 555.333,692.5 555.333,693.5 556,694.5C 563.168,700.744 570.501,706.744 578,712.5C 610.551,689.184 645.717,684.35 683.5,698C 727.507,718.832 749.007,753.665 748,802.5C 742.698,848.61 718.198,879.444 674.5,895C 632.002,905.94 595.502,895.773 565,864.5C 538.469,831.315 532.469,794.648 547,754.5C 549.039,750.255 551.206,746.088 553.5,742C 545.76,735.049 537.927,728.215 530,721.5C 476.453,765.873 416.62,776.706 350.5,754C 294.128,730.298 258.628,688.798 244,629.5C 231.342,558.454 252.509,499.954 307.5,454C 361.751,415.26 420.084,407.927 482.5,432C 514.095,446.429 539.762,467.929 559.5,496.5C 572.044,490.061 584.711,483.894 597.5,478C 585.309,427.596 596.143,382.762 630,343.5C 653.218,320.308 681.052,306.308 713.5,301.5 Z"/></g>
</svg>
